<svg xmlns:xlink="http://www.w3.org/1999/xlink" xmlns="http://www.w3.org/2000/svg" viewBox="0 0 44 44" width="44" height="44"><path fill="#D1D4DC" fill-rule="evenodd" d="M29.48 15.32c-.16-.14-.4-.07-.48.13a6.05 6.05 0 0 1-2.38 3.13 6.16 6.16 0 0 1-.8.42c-.06.03-.14-.03-.13-.1a19.45 19.45 0 0 0 .08-.9v-.1c.38-5.91-2.43-9.13-4.59-10.41a7.4 7.4 0 0 0-.79-.4c-.1-.05-.21.13-.2.24a5.7 5.7 0 0 1-.04.73v.01c-.27 2.49-2.22 4.29-4.21 6.14-1.63 1.5-3.29 3.05-4.11 5.02a10.48 10.48 0 0 0-.83 4.06A10.9 10.9 0 0 0 20.17 34c.95-.59 1.34-1.82 1.33-3.04 0-.35-.04-.7-.11-1.03.28 0 .68.14 1.07.41A3.36 3.36 0 0 1 23.83 34 10.89 10.89 0 0 0 33 23.29c0-3.15-1.36-5.98-3.52-7.97Zm-4.56 17.4c4.1-1.23 7.08-5 7.08-9.43 0-2.5-.94-4.78-2.5-6.52a6.43 6.43 0 0 1-3.27 3.14m-1.3 12.81a4.3 4.3 0 0 0-2.2-3.39c-.4-.23-.88-.4-1.34-.4h-1.22l.24 1.2c.13.62.12 1.3-.03 1.86-.1.41-.27.73-.48.94A9.9 9.9 0 0 1 12 23.3c0-1.3.27-2.53.75-3.67.42-1 1.1-1.91 1.95-2.81.6-.64 1.23-1.23 1.9-1.84l.87-.82c1.57-1.5 3.2-3.22 3.61-5.54 1.9 1.34 4.29 4.44 3.61 10.16-.09.78.7 1.52 1.55 1.14"></path></svg>