<svg xmlns:xlink="http://www.w3.org/1999/xlink" xmlns="http://www.w3.org/2000/svg" viewBox="0 0 44 44" width="44" height="44"><path fill="#D1D4DC" fill-rule="evenodd" d="M30 18.5a8.5 8.5 0 0 1-4.5 7.5H22v-6h2v-1h-5v1h2v6h-3.5A8.5 8.5 0 1 1 30 18.5ZM17 27v3a1 1 0 0 0 1 1h7a1 1 0 0 0 1-1v-3h-9Zm-1-.75A9.49 9.49 0 0 1 21.5 9 9.5 9.5 0 0 1 27 26.25V30a2 2 0 0 1-2 2 2 2 0 0 1-2 2h-3a2 2 0 0 1-2-2 2 2 0 0 1-2-2v-3.75ZM20 33a1 1 0 0 1-1-1h5a1 1 0 0 1-1 1h-3ZM6.94 18.5c0-2.2.57-4.26 1.56-6.08L7.67 12a13.48 13.48 0 0 0 0 13l.83-.42a12.6 12.6 0 0 1-1.56-6.08Zm27.56-6.08a12.6 12.6 0 0 1 0 12.16l.83.42a13.48 13.48 0 0 0 0-13l-.83.42ZM9.77 18.5a10 10 0 0 1 1.24-4.82l-.84-.42a10.87 10.87 0 0 0 0 10.48l.84-.42a10 10 0 0 1-1.24-4.82ZM32 13.68a10 10 0 0 1 0 9.64l.84.42a10.87 10.87 0 0 0 0-10.48l-.84.42Z"></path></svg>